TITLE:   test sequenz wild uganda 
FCM: NON-DROP FRAME
001  DCUG_WS_ V     C        11:23:38:04 11:26:09:04 10:00:00:00 10:02:31:00 
* FROM CLIP NAME:  DCUG_WS_F55_1216
002  DCUG2_WS V     C        00:40:48:18 00:40:58:17 10:02:31:00 10:02:40:24 
M2   DCUG2_WS       050.0                00:40:48:18 
* FROM CLIP NAME:  DCUG2_WS_F5R_0022
003  DCUG2_WS V     C        00:25:32:06 00:28:25:11 10:02:40:24 10:05:34:04 
M2   DCUG2_WS       050.0                00:25:32:06 
* FROM CLIP NAME:  DCUG2_WS_F5R_0020
004  DCUG2_WS V     C        00:24:50:00 00:25:32:04 10:05:34:04 10:06:16:08 
M2   DCUG2_WS       050.0                00:24:50:00 
* FROM CLIP NAME:  DCUG2_WS_F5R_0019
005  DCUG2_WS V     C        00:23:52:18 00:24:49:23 10:06:16:08 10:07:13:13 
M2   DCUG2_WS       050.0                00:23:52:18 
* FROM CLIP NAME:  DCUG2_WS_F5R_0018
006  DCUG2_WS V     C        00:23:33:06 00:23:52:17 10:07:13:13 10:07:32:24 
M2   DCUG2_WS       050.0                00:23:33:06 
* FROM CLIP NAME:  DCUG2_WS_F5R_0017
007  DCUG2_WS V     C        00:22:50:17 00:23:33:04 10:07:32:24 10:08:15:11 
M2   DCUG2_WS       050.0                00:22:50:17 
* FROM CLIP NAME:  DCUG2_WS_F5R_0016
008  DCUG2_WS V     C        00:21:56:24 00:22:50:16 10:08:15:11 10:09:09:03 
M2   DCUG2_WS       050.0                00:21:56:24 
* FROM CLIP NAME:  DCUG2_WS_F5R_0015
009  DCUG2_WS V     C        00:33:31:07 00:37:36:24 10:09:09:03 10:13:14:20 
M2   DCUG2_WS       050.0                00:33:31:07 
* FROM CLIP NAME:  DCUG2_WS_F5R_0021
010  DCUG2_WS V     C        00:21:50:22 00:21:56:22 10:13:14:20 10:13:20:20 
M2   DCUG2_WS       050.0                00:21:50:22 
* FROM CLIP NAME:  DCUG2_WS_F5R_0014
011  DCUG2_WS V     C        00:21:16:00 00:21:50:20 10:13:20:20 10:13:55:15 
M2   DCUG2_WS       050.0                00:21:16:00 
* FROM CLIP NAME:  DCUG2_WS_F5R_0013
012  DCUG2_WS V     C        00:20:59:18 00:21:15:24 10:13:55:15 10:14:11:21 
M2   DCUG2_WS       050.0                00:20:59:18 
* FROM CLIP NAME:  DCUG2_WS_F5R_0012
013  DCUG2_WS V     C        00:20:46:10 00:20:59:17 10:14:11:21 10:14:25:03 
M2   DCUG2_WS       050.0                00:20:46:10 
* FROM CLIP NAME:  DCUG2_WS_F5R_0011
014  DCUG_WS_ V     C        00:38:06:17 00:39:23:24 10:14:25:03 10:15:42:10 
M2   DCUG_WS_       050.0                00:38:06:17 
* FROM CLIP NAME:  DCUG_WS_F55_0652
015  DCUG_WS_ V     C        00:37:59:19 00:38:06:16 10:15:42:10 10:15:49:07 
M2   DCUG_WS_       050.0                00:37:59:19 
* FROM CLIP NAME:  DCUG_WS_F55_0651
016  DCUG_WS_ V     C        00:36:09:07 00:37:59:18 10:15:49:07 10:17:39:18 
M2   DCUG_WS_       050.0                00:36:09:07 
* FROM CLIP NAME:  DCUG_WS_F55_0650
017  DCUG_WS_ V     C        00:34:35:14 00:36:09:06 10:17:39:18 10:19:13:10 
M2   DCUG_WS_       050.0                00:34:35:14 
* FROM CLIP NAME:  DCUG_WS_F55_0649
018  DCUG_WS_ V     C        00:32:54:13 00:34:35:13 10:19:13:10 10:20:54:10 
M2   DCUG_WS_       050.0                00:32:54:13 
* FROM CLIP NAME:  DCUG_WS_F55_0648
019  DCUG_WS_ V     C        00:32:24:20 00:32:54:12 10:20:54:10 10:21:24:02 
M2   DCUG_WS_       050.0                00:32:24:20 
* FROM CLIP NAME:  DCUG_WS_F55_0647
020  DCUG_WS_ V     C        00:32:05:22 00:32:24:18 10:21:24:02 10:21:42:23 
M2   DCUG_WS_       050.0                00:32:05:22 
* FROM CLIP NAME:  DCUG_WS_F55_0646
021  DCUG_WS_ V     C        00:31:13:06 00:32:05:21 10:21:42:23 10:22:35:13 
M2   DCUG_WS_       050.0                00:31:13:06 
* FROM CLIP NAME:  DCUG_WS_F55_0645
022  DCUG_WS_ V     C        00:30:55:00 00:31:13:04 10:22:35:13 10:22:53:17 
M2   DCUG_WS_       050.0                00:30:55:00 
* FROM CLIP NAME:  DCUG_WS_F55_0644
023  DCUG_WS_ V     C        00:30:38:01 00:30:54:23 10:22:53:17 10:23:10:14 
M2   DCUG_WS_       050.0                00:30:38:01 
* FROM CLIP NAME:  DCUG_WS_F55_0643
024  DCUG_WS_ V     C        00:30:17:07 00:30:38:00 10:23:10:14 10:23:31:07 
M2   DCUG_WS_       050.0                00:30:17:07 
* FROM CLIP NAME:  DCUG_WS_F55_0642
025  DCUG_WS_ V     C        06:56:33:23 06:57:33:01 10:23:31:07 10:24:30:10 
M2   DCUG_WS_       050.0                06:56:33:23 
* FROM CLIP NAME:  DCUG_WS_F55_1043
026  DCUG_WS_ V     C        06:53:34:17 06:53:49:01 10:24:30:10 10:24:44:19 
M2   DCUG_WS_       050.0                06:53:34:17 
* FROM CLIP NAME:  DCUG_WS_F55_1039
027  DCUG_WS_ V     C        06:52:47:01 06:53:34:16 10:24:44:19 10:25:32:09 
M2   DCUG_WS_       050.0                06:52:47:01 
* FROM CLIP NAME:  DCUG_WS_F55_1038
028  DCUG_WS_ V     C        06:52:34:04 06:52:47:00 10:25:32:09 10:25:45:05 
M2   DCUG_WS_       050.0                06:52:34:04 
* FROM CLIP NAME:  DCUG_WS_F55_1037
029  DCUG_WS_ V     C        06:52:15:01 06:52:34:03 10:25:45:05 10:26:04:07 
M2   DCUG_WS_       050.0                06:52:15:01 
* FROM CLIP NAME:  DCUG_WS_F55_1036
030  DCUG_WS_ V     C        06:55:17:20 06:56:33:22 10:26:04:07 10:27:20:09 
M2   DCUG_WS_       050.0                06:55:17:20 
* FROM CLIP NAME:  DCUG_WS_F55_1042
031  DCUG_WS_ V     C        06:54:17:13 06:55:17:19 10:27:20:09 10:28:20:15 
M2   DCUG_WS_       050.0                06:54:17:13 
* FROM CLIP NAME:  DCUG_WS_F55_1041
032  DCUG_WS_ V     C        06:53:49:03 06:54:17:12 10:28:20:15 10:28:48:24 
M2   DCUG_WS_       050.0                06:53:49:03 
* FROM CLIP NAME:  DCUG_WS_F55_1040
033  DCUG_WS_ V     C        06:49:41:03 06:52:14:24 10:28:48:24 10:31:22:20 
M2   DCUG_WS_       050.0                06:49:41:03 
* FROM CLIP NAME:  DCUG_WS_F55_1035
034  DCUG_CS_ V     C        10:03:27:24 10:04:10:23 10:31:22:20 10:32:05:19 
* FROM CLIP NAME:  DCUG_CS_F55_0593
035  DCUG_CS_ V     C        09:59:29:12 10:01:10:00 10:32:05:19 10:33:46:07 
* FROM CLIP NAME:  DCUG_CS_F55_0590
036  DCUG_CS_ V     C        09:58:08:13 09:58:51:16 10:33:46:07 10:34:29:10 
* FROM CLIP NAME:  DCUG_CS_F55_0588
037  DCUG_CS_ V     C        09:57:19:19 09:58:08:12 10:34:29:10 10:35:18:03 
* FROM CLIP NAME:  DCUG_CS_F55_0587
038  DCUG_CS_ V     C        09:56:32:05 09:57:19:18 10:35:18:03 10:36:05:16 
* FROM CLIP NAME:  DCUG_CS_F55_0586
039  DCUG_CS_ V     C        10:03:07:00 10:03:27:23 10:36:05:16 10:36:26:14 
* FROM CLIP NAME:  DCUG_CS_F55_0592
040  DCUG_CS_ V     C        09:58:51:18 09:59:29:10 10:36:26:14 10:37:04:06 
* FROM CLIP NAME:  DCUG_CS_F55_0589
041  DCUG_CS_ V     C        09:56:08:13 09:56:32:03 10:37:04:06 10:37:27:21 
* FROM CLIP NAME:  DCUG_CS_F55_0585
042  DCUG2_CS V     C        00:41:51:02 00:42:12:18 10:37:27:21 10:37:49:12 
* FROM CLIP NAME:  DCUG2_CS_F5R_0066
043  DCUG2_CS V     C        00:40:07:13 00:40:25:15 10:37:49:12 10:38:07:14 
* FROM CLIP NAME:  DCUG2_CS_F5R_0062
044  DCUG2_CS V     C        00:39:43:24 00:40:07:12 10:38:07:14 10:38:31:02 
* FROM CLIP NAME:  DCUG2_CS_F5R_0061
045  DCUG2_CS V     C        00:41:28:19 00:41:51:01 10:38:31:02 10:38:53:09 
* FROM CLIP NAME:  DCUG2_CS_F5R_0065
046  DCUG2_CS V     C        00:40:58:20 00:41:28:18 10:38:53:09 10:39:23:07 
* FROM CLIP NAME:  DCUG2_CS_F5R_0064
047  DCUG2_CS V     C        00:40:25:16 00:40:58:19 10:39:23:07 10:39:56:10 
* FROM CLIP NAME:  DCUG2_CS_F5R_0063
048  DCUG2_CS V     C        00:39:23:20 00:39:43:22 10:39:56:10 10:40:16:12 
* FROM CLIP NAME:  DCUG2_CS_F5R_0060
049  DCUG_CS_ V     C        08:00:23:19 08:00:26:06 10:40:16:12 10:40:18:24 
* FROM CLIP NAME:  DCUG_CS_F55_0453