TITLE:   T0234_Reasons to Love_ALL Video from LTO 
FCM: NON-DROP FRAME
000001  IMG_7624                                          V     C        00:00:28:06 00:00:29:06 10:00:11:10 10:00:12:14 
M2      IMG_7624                                                   025.0 00:00:28:06 
*FROM CLIP NAME:  IMG_7624
000002  A028_C015_11100H_WSE619_A1_S1_GRD.LOWRES.MOV.MP4  V     C        10:00:03:22 10:00:03:23 10:05:58:24 10:06:02:00 
M2      A028_C015_11100H_WSE619_A1_S1_GRD.LOWRES.MOV.MP4          -025.0 10:00:03:22 
*FROM CLIP NAME:  A028_C015_11100H_WSE619_A1_S1_GRD.LOWRES.MOV.MP4
000003  A008C021_150626ZS_LOE297_A2_S1_GRD.LOWRES.MOV.MP4 V     C        10:00:02:23 10:00:05:19 10:06:02:00 10:06:04:21 
*IMAGE, STABILIZE 
*FROM CLIP NAME:  A008C021_150626ZS_LOE297_A2_S1_GRD.LOWRES.MOV.MP4
000004  N1084001_AM86_A1_S33_GRD.LOWRES.MOV.MP4           V     C        10:00:05:18 10:00:08:24 10:06:04:21 10:06:08:02 
*FROM CLIP NAME:  N1084001_AM86_A1_S33_GRD.LOWRES.MOV.MP4
000005  A022_C040_0224Z3_WB2523_A1_S1_GRD.LOWRES.MOV.MP4  V     C        10:00:04:00 10:00:07:01 10:28:22:15 10:28:25:16 
*FROM CLIP NAME:  A022_C040_0224Z3_WB2523_A1_S1_GRD.LOWRES.MOV.MP4
000006  A033C057_210608_J77R                              V     C        15:10:20:14 15:10:24:14 10:44:39:22 10:44:43:22 
*IMAGE, COLOR CORRECTION 
*FROM CLIP NAME:  A033C057_210608_J77R.NEW.01
000007  A033C072_210608_J77R                              V     C        15:27:05:17 15:27:09:05 10:44:43:22 10:44:47:10 
*IMAGE, COLOR CORRECTION 
*FROM CLIP NAME:  A033C072_210608_J77R.NEW.01
000008  DJI_0179                                          V     C        00:01:33:08 00:01:35:14 10:44:47:10 10:44:49:16 
*IMAGE, COLOR CORRECTION 
*FROM CLIP NAME:  DJI_0179.NEW.01
000009  DJI_0179                                          V     C        00:01:35:14 00:01:35:14 10:44:49:16 10:44:49:16 
000009  DJI_0179                                          V     D    071 00:01:35:14 00:01:39:14 10:44:49:16 10:44:53:16 
*IMAGE, COLOR CORRECTION 
*BLEND, DISSOLVE 
*FROM CLIP NAME:  DJI_0179.NEW.01 
*TO CLIP NAME:  DJI_0179.NEW.01
000010  A026C197_210602_J77R                              V     C        14:04:54:17 14:04:56:24 10:44:53:16 10:44:55:23 
*IMAGE, COLOR CORRECTION 
*AVX2 EFFECT, RESIZE 
*FROM CLIP NAME:  A026C197_210602_J77R.NEW.01
000011  A026C149_210602_J77R                              V     C        11:25:29:06 11:25:31:03 10:44:55:23 10:44:57:20 
*FROM CLIP NAME:  A026C149_210602_J77R.NEW.01
000012  A033C061_210608_J77R                              V     C        15:17:24:24 15:17:27:20 10:44:57:20 10:45:00:16 
*IMAGE, COLOR CORRECTION 
*SAPPHIRE BLUR+SHARPEN, S_BLUR 
*FROM CLIP NAME:  A033C061_210608_J77R.NEW.01
000013  A026C126_210602_J77R                              V     C        11:01:47:02 11:01:48:20 10:45:00:16 10:45:02:09 
*IMAGE, COLOR CORRECTION 
*FROM CLIP NAME:  A026C126_210602_J77R.NEW.01
000014  A026C129_210602_J77R                              V     C        11:03:18:09 11:03:20:21 10:45:02:09 10:45:04:21 
*FROM CLIP NAME:  A026C129_210602_J77R.NEW.01
000015  A034C031_210609_J77R                              V     C        09:23:00:08 09:23:08:15 10:45:04:21 10:45:09:00 
M2      A034C031_210609_J77R                                       050.0 09:23:00:08 
*IMAGE, COLOR CORRECTION 
*SAPPHIRE BLUR+SHARPEN, S_BLUR 
*FROM CLIP NAME:  A034C031_210609_J77R.NEW.01
000016  A034C099_210609_J77R                              V     C        12:57:34:10 12:57:41:11 10:45:09:00 10:45:16:01 
*IMAGE, COLOR CORRECTION 
*IMAGE, FLOP 
*AVX2 EFFECT, RESIZE 
*FROM CLIP NAME:  A034C099_210609_J77R.NEW.01
000017  A026C140_210602_J77R                              V     C        11:18:28:22 11:18:30:07 10:45:16:01 10:45:17:11 
*FROM CLIP NAME:  A026C140_210602_J77R.NEW.01
000018  A026C123_210602_J77R                              V     C        10:58:55:15 10:58:59:13 10:45:17:11 10:45:21:09 
*IMAGE, COLOR CORRECTION 
*IMAGE, FLOP 
*FROM CLIP NAME:  A026C123_210602_J77R.NEW.01
000019  A026C023_210602_J77R                              V     C        09:25:31:04 09:25:36:13 10:45:21:09 10:45:26:18 
*IMAGE, COLOR CORRECTION 
*FROM CLIP NAME:  A026C023_210602_J77R.NEW.01
000020  A026C171_210602_J77R                              V     C        12:15:57:24 12:16:02:03 10:45:26:18 10:45:30:22 
*IMAGE, COLOR CORRECTION 
*IMAGE, FLOP 
*FROM CLIP NAME:  A026C171_210602_J77R.NEW.01
000021  A028C016_210603_J77R                              V     C        08:46:01:00 08:46:03:18 10:45:30:22 10:45:33:15 
*IMAGE, COLOR CORRECTION 
*IMAGE, FLOP 
*FROM CLIP NAME:  A028C016_210603_J77R.NEW.01
000022  A026C024_210602_J77R                              V     C        09:26:36:10 09:26:38:14 10:45:33:15 10:45:35:19 
*IMAGE, COLOR CORRECTION 
*IMAGE, FLOP 
*AVX2 EFFECT, RESIZE 
*FROM CLIP NAME:  A026C024_210602_J77R.NEW.01
000023  A026C123_210602_J77R                              V     C        10:58:31:07 10:58:37:01 10:45:35:19 10:45:41:13 
*IMAGE, COLOR CORRECTION 
*FROM CLIP NAME:  A026C123_210602_J77R.NEW.01
000024  A034C004_210609_J77R                              V     C        08:44:04:23 08:44:08:09 10:45:41:13 10:45:44:24 
*IMAGE, COLOR CORRECTION 
*FROM CLIP NAME:  A034C004_210609_J77R.NEW.01
000025  A026C023_210602_J77R                              V     C        09:25:54:01 09:25:57:20 10:45:44:24 10:45:48:18 
*IMAGE, COLOR CORRECTION 
*FROM CLIP NAME:  A026C023_210602_J77R.NEW.01
000026  A026C206_210602_J77R                              V     C        14:33:53:04 14:33:53:24 10:45:48:18 10:45:51:20 
M2      A026C206_210602_J77R                                       006.3 14:33:53:04 
*IMAGE, COLOR CORRECTION 
*FROM CLIP NAME:  A026C206_210602_J77R.NEW.01
000027  C0007                                             V     C        15:55:54:05 15:55:55:18 10:45:51:20 10:45:53:08 
*IMAGE, COLOR CORRECTION 
*FROM CLIP NAME:  C0007.NEW.01
000028  C0008                                             V     C        15:59:10:19 15:59:21:01 10:45:53:08 10:46:03:15 
*IMAGE, COLOR CORRECTION 
*FROM CLIP NAME:  C0008.NEW.01
000029  A028_C015_11100H_WSE619_A1_S1_GRD.LOWRES.MOV.MP4  V     C        10:00:03:22 10:00:03:23 11:07:28:06 11:07:31:07 
M2      A028_C015_11100H_WSE619_A1_S1_GRD.LOWRES.MOV.MP4          -025.0 10:00:03:22 
*FROM CLIP NAME:  A028_C015_11100H_WSE619_A1_S1_GRD.LOWRES.MOV.MP4
000030  A008C021_150626ZS_LOE297_A2_S1_GRD.LOWRES.MOV.MP4 V     C        10:00:02:23 10:00:05:19 11:07:31:07 11:07:34:03 
*IMAGE, STABILIZE 
*FROM CLIP NAME:  A008C021_150626ZS_LOE297_A2_S1_GRD.LOWRES.MOV.MP4
000031  N1084001_AM86_A1_S33_GRD.LOWRES.MOV.MP4           V     C        10:00:05:18 10:00:08:24 11:07:34:03 11:07:37:09 
*FROM CLIP NAME:  N1084001_AM86_A1_S33_GRD.LOWRES.MOV.MP4
000032  A022_C040_0224Z3_WB2523_A1_S1_GRD.LOWRES.MOV.MP4  V     C        10:00:04:00 10:00:07:01 11:27:48:06 11:27:51:07 
*FROM CLIP NAME:  A022_C040_0224Z3_WB2523_A1_S1_GRD.LOWRES.MOV.MP4
000033  A033C057_210608_J77R                              V     C        15:10:20:14 15:10:24:14 11:41:51:01 11:41:55:01 
*IMAGE, COLOR CORRECTION 
*FROM CLIP NAME:  A033C057_210608_J77R.NEW.01
000034  A033C072_210608_J77R                              V     C        15:27:05:17 15:27:09:05 11:41:55:01 11:41:58:14 
*IMAGE, COLOR CORRECTION 
*FROM CLIP NAME:  A033C072_210608_J77R.NEW.01
000035  DJI_0179                                          V     C        00:01:33:08 00:01:35:14 11:41:58:14 11:42:00:20 
*IMAGE, COLOR CORRECTION 
*FROM CLIP NAME:  DJI_0179.NEW.01
000036  DJI_0179                                          V     C        00:01:35:14 00:01:35:14 11:42:00:20 11:42:00:20 
000036  DJI_0179                                          V     D    071 00:01:35:14 00:01:39:14 11:42:00:20 11:42:04:20 
*IMAGE, COLOR CORRECTION 
*BLEND, DISSOLVE 
*FROM CLIP NAME:  DJI_0179.NEW.01 
*TO CLIP NAME:  DJI_0179.NEW.01
000037  A026C197_210602_J77R                              V     C        14:04:54:17 14:04:56:24 11:42:04:20 11:42:07:02 
*IMAGE, COLOR CORRECTION 
*AVX2 EFFECT, RESIZE 
*FROM CLIP NAME:  A026C197_210602_J77R.NEW.01
000038  A026C149_210602_J77R                              V     C        11:25:29:06 11:25:31:03 11:42:07:02 11:42:08:24 
*FROM CLIP NAME:  A026C149_210602_J77R.NEW.01
000039  A033C061_210608_J77R                              V     C        15:17:24:24 15:17:27:20 11:42:08:24 11:42:11:20 
*IMAGE, COLOR CORRECTION 
*SAPPHIRE BLUR+SHARPEN, S_BLUR 
*FROM CLIP NAME:  A033C061_210608_J77R.NEW.01
000040  A026C126_210602_J77R                              V     C        11:01:47:02 11:01:48:20 11:42:11:20 11:42:13:13 
*IMAGE, COLOR CORRECTION 
*FROM CLIP NAME:  A026C126_210602_J77R.NEW.01
000041  A026C129_210602_J77R                              V     C        11:03:18:09 11:03:20:21 11:42:13:13 11:42:16:00 
*FROM CLIP NAME:  A026C129_210602_J77R.NEW.01
000042  A034C031_210609_J77R                              V     C        09:23:00:08 09:23:08:15 11:42:16:00 11:42:20:04 
M2      A034C031_210609_J77R                                       050.0 09:23:00:08 
*IMAGE, COLOR CORRECTION 
*SAPPHIRE BLUR+SHARPEN, S_BLUR 
*FROM CLIP NAME:  A034C031_210609_J77R.NEW.01
000043  A034C099_210609_J77R                              V     C        12:57:34:10 12:57:41:11 11:42:20:04 11:42:27:05 
*IMAGE, COLOR CORRECTION 
*IMAGE, FLOP 
*AVX2 EFFECT, RESIZE 
*FROM CLIP NAME:  A034C099_210609_J77R.NEW.01
000044  A026C140_210602_J77R                              V     C        11:18:28:22 11:18:30:07 11:42:27:05 11:42:28:15 
*FROM CLIP NAME:  A026C140_210602_J77R.NEW.01
000045  A026C123_210602_J77R                              V     C        10:58:55:15 10:58:59:13 11:42:28:15 11:42:32:13 
*IMAGE, COLOR CORRECTION 
*IMAGE, FLOP 
*FROM CLIP NAME:  A026C123_210602_J77R.NEW.01
000046  A026C023_210602_J77R                              V     C        09:25:31:04 09:25:36:13 11:42:32:13 11:42:37:22 
*IMAGE, COLOR CORRECTION 
*FROM CLIP NAME:  A026C023_210602_J77R.NEW.01
000047  A026C171_210602_J77R                              V     C        12:15:57:24 12:16:02:03 11:42:37:22 11:42:42:01 
*IMAGE, COLOR CORRECTION 
*IMAGE, FLOP 
*FROM CLIP NAME:  A026C171_210602_J77R.NEW.01
000048  A028C016_210603_J77R                              V     C        08:46:01:00 08:46:03:18 11:42:42:01 11:42:44:19 
*IMAGE, COLOR CORRECTION 
*IMAGE, FLOP 
*FROM CLIP NAME:  A028C016_210603_J77R.NEW.01
000049  A026C024_210602_J77R                              V     C        09:26:36:10 09:26:38:14 11:42:44:19 11:42:46:23 
*IMAGE, COLOR CORRECTION 
*IMAGE, FLOP 
*AVX2 EFFECT, RESIZE 
*FROM CLIP NAME:  A026C024_210602_J77R.NEW.01
000050  A026C123_210602_J77R                              V     C        10:58:31:07 10:58:37:01 11:42:46:23 11:42:52:17 
*IMAGE, COLOR CORRECTION 
*FROM CLIP NAME:  A026C123_210602_J77R.NEW.01
000051  A034C004_210609_J77R                              V     C        08:44:04:23 08:44:08:09 11:42:52:17 11:42:56:03 
*IMAGE, COLOR CORRECTION 
*FROM CLIP NAME:  A034C004_210609_J77R.NEW.01
000052  A026C023_210602_J77R                              V     C        09:25:54:01 09:25:57:20 11:42:56:03 11:42:59:22 
*IMAGE, COLOR CORRECTION 
*FROM CLIP NAME:  A026C023_210602_J77R.NEW.01
000053  A026C206_210602_J77R                              V     C        14:33:53:04 14:33:53:24 11:42:59:22 11:43:02:24 
M2      A026C206_210602_J77R                                       006.3 14:33:53:04 
*IMAGE, COLOR CORRECTION 
*FROM CLIP NAME:  A026C206_210602_J77R.NEW.01
000054  C0007                                             V     C        15:55:54:05 15:55:55:18 11:43:02:24 11:43:04:12 
*IMAGE, COLOR CORRECTION 
*FROM CLIP NAME:  C0007.NEW.01
000055  C0008                                             V     C        15:59:10:19 15:59:21:01 11:43:04:12 11:43:14:19 
*IMAGE, COLOR CORRECTION 
*FROM CLIP NAME:  C0008.NEW.01
000056  IMG_7624                                          V     C        00:00:28:06 00:00:29:06 12:00:11:10 12:00:12:14 
M2      IMG_7624                                                   025.0 00:00:28:06 
*FROM CLIP NAME:  IMG_7624
000057  A028_C015_11100H_WSE619_A1_S1_GRD.LOWRES.MOV.MP4  V     C        10:00:03:22 10:00:03:23 12:05:58:24 12:06:02:00 
M2      A028_C015_11100H_WSE619_A1_S1_GRD.LOWRES.MOV.MP4          -025.0 10:00:03:22 
*FROM CLIP NAME:  A028_C015_11100H_WSE619_A1_S1_GRD.LOWRES.MOV.MP4
000058  A008C021_150626ZS_LOE297_A2_S1_GRD.LOWRES.MOV.MP4 V     C        10:00:02:23 10:00:05:19 12:06:02:00 12:06:04:21 
*IMAGE, STABILIZE 
*FROM CLIP NAME:  A008C021_150626ZS_LOE297_A2_S1_GRD.LOWRES.MOV.MP4
000059  N1084001_AM86_A1_S33_GRD.LOWRES.MOV.MP4           V     C        10:00:05:18 10:00:08:24 12:06:04:21 12:06:08:02 
*FROM CLIP NAME:  N1084001_AM86_A1_S33_GRD.LOWRES.MOV.MP4
000060  A022_C040_0224Z3_WB2523_A1_S1_GRD.LOWRES.MOV.MP4  V     C        10:00:04:00 10:00:07:01 12:25:27:23 12:25:30:24 
*FROM CLIP NAME:  A022_C040_0224Z3_WB2523_A1_S1_GRD.LOWRES.MOV.MP4
000061  A033C057_210608_J77R                              V     C        15:10:20:14 15:10:24:14 12:41:45:05 12:41:49:05 
*IMAGE, COLOR CORRECTION 
*FROM CLIP NAME:  A033C057_210608_J77R.NEW.01
000062  A033C072_210608_J77R                              V     C        15:27:05:17 15:27:09:05 12:41:49:05 12:41:52:18 
*IMAGE, COLOR CORRECTION 
*FROM CLIP NAME:  A033C072_210608_J77R.NEW.01
000063  DJI_0179                                          V     C        00:01:33:08 00:01:35:14 12:41:52:18 12:41:54:24 
*IMAGE, COLOR CORRECTION 
*FROM CLIP NAME:  DJI_0179.NEW.01
000064  DJI_0179                                          V     C        00:01:35:14 00:01:35:14 12:41:54:24 12:41:54:24 
000064  DJI_0179                                          V     D    071 00:01:35:14 00:01:39:14 12:41:54:24 12:41:58:24 
*IMAGE, COLOR CORRECTION 
*BLEND, DISSOLVE 
*FROM CLIP NAME:  DJI_0179.NEW.01 
*TO CLIP NAME:  DJI_0179.NEW.01
000065  A026C197_210602_J77R                              V     C        14:04:54:17 14:04:56:24 12:41:58:24 12:42:01:06 
*IMAGE, COLOR CORRECTION 
*AVX2 EFFECT, RESIZE 
*FROM CLIP NAME:  A026C197_210602_J77R.NEW.01
000066  A026C149_210602_J77R                              V     C        11:25:29:06 11:25:31:03 12:42:01:06 12:42:03:03 
*FROM CLIP NAME:  A026C149_210602_J77R.NEW.01
000067  A033C061_210608_J77R                              V     C        15:17:24:24 15:17:27:20 12:42:03:03 12:42:05:24 
*IMAGE, COLOR CORRECTION 
*SAPPHIRE BLUR+SHARPEN, S_BLUR 
*FROM CLIP NAME:  A033C061_210608_J77R.NEW.01
000068  A026C126_210602_J77R                              V     C        11:01:47:02 11:01:48:20 12:42:05:24 12:42:07:17 
*IMAGE, COLOR CORRECTION 
*FROM CLIP NAME:  A026C126_210602_J77R.NEW.01
000069  A026C129_210602_J77R                              V     C        11:03:18:09 11:03:20:21 12:42:07:17 12:42:10:04 
*FROM CLIP NAME:  A026C129_210602_J77R.NEW.01
000070  A034C031_210609_J77R                              V     C        09:23:00:08 09:23:08:15 12:42:10:04 12:42:14:08 
M2      A034C031_210609_J77R                                       050.0 09:23:00:08 
*IMAGE, COLOR CORRECTION 
*SAPPHIRE BLUR+SHARPEN, S_BLUR 
*FROM CLIP NAME:  A034C031_210609_J77R.NEW.01
000071  A034C099_210609_J77R                              V     C        12:57:34:10 12:57:41:11 12:42:14:08 12:42:21:09 
*IMAGE, COLOR CORRECTION 
*IMAGE, FLOP 
*AVX2 EFFECT, RESIZE 
*FROM CLIP NAME:  A034C099_210609_J77R.NEW.01
000072  A026C140_210602_J77R                              V     C        11:18:28:22 11:18:30:07 12:42:21:09 12:42:22:19 
*FROM CLIP NAME:  A026C140_210602_J77R.NEW.01
000073  A026C123_210602_J77R                              V     C        10:58:55:15 10:58:59:13 12:42:22:19 12:42:26:17 
*IMAGE, COLOR CORRECTION 
*IMAGE, FLOP 
*FROM CLIP NAME:  A026C123_210602_J77R.NEW.01
000074  A026C023_210602_J77R                              V     C        09:25:31:04 09:25:36:13 12:42:26:17 12:42:32:01 
*IMAGE, COLOR CORRECTION 
*FROM CLIP NAME:  A026C023_210602_J77R.NEW.01
000075  A026C171_210602_J77R                              V     C        12:15:57:24 12:16:02:03 12:42:32:01 12:42:36:05 
*IMAGE, COLOR CORRECTION 
*IMAGE, FLOP 
*FROM CLIP NAME:  A026C171_210602_J77R.NEW.01
000076  A028C016_210603_J77R                              V     C        08:46:01:00 08:46:03:18 12:42:36:05 12:42:38:23 
*IMAGE, COLOR CORRECTION 
*IMAGE, FLOP 
*FROM CLIP NAME:  A028C016_210603_J77R.NEW.01
000077  A026C024_210602_J77R                              V     C        09:26:36:10 09:26:38:14 12:42:38:23 12:42:41:02 
*IMAGE, COLOR CORRECTION 
*IMAGE, FLOP 
*AVX2 EFFECT, RESIZE 
*FROM CLIP NAME:  A026C024_210602_J77R.NEW.01
000078  A026C123_210602_J77R                              V     C        10:58:31:07 10:58:37:01 12:42:41:02 12:42:46:21 
*IMAGE, COLOR CORRECTION 
*FROM CLIP NAME:  A026C123_210602_J77R.NEW.01
000079  A034C004_210609_J77R                              V     C        08:44:04:23 08:44:08:09 12:42:46:21 12:42:50:07 
*IMAGE, COLOR CORRECTION 
*FROM CLIP NAME:  A034C004_210609_J77R.NEW.01
000080  A026C023_210602_J77R                              V     C        09:25:54:01 09:25:57:20 12:42:50:07 12:42:54:01 
*IMAGE, COLOR CORRECTION 
*FROM CLIP NAME:  A026C023_210602_J77R.NEW.01
000081  A026C206_210602_J77R                              V     C        14:33:53:04 14:33:53:24 12:42:54:01 12:42:57:03 
M2      A026C206_210602_J77R                                       006.3 14:33:53:04 
*IMAGE, COLOR CORRECTION 
*FROM CLIP NAME:  A026C206_210602_J77R.NEW.01
000082  C0007                                             V     C        15:55:54:05 15:55:55:18 12:42:57:03 12:42:58:16 
*IMAGE, COLOR CORRECTION 
*FROM CLIP NAME:  C0007.NEW.01
000083  C0008                                             V     C        15:59:10:19 15:59:21:01 12:42:58:16 12:43:08:23 
*IMAGE, COLOR CORRECTION 
*FROM CLIP NAME:  C0008.NEW.01